<?xml version="1.0" encoding="iso-8859-1"?>
<!-- Uploaded to: SVG Repo, www.svgrepo.com, Generator: SVG Repo Mixer Tools -->
<svg fill="#000000" version="1.1" id="Layer_1" xmlns="http://www.w3.org/2000/svg" xmlns:xlink="http://www.w3.org/1999/xlink" 
	 viewBox="0 0 491.52 491.52" xml:space="preserve">
<g>
	<g>
		<path d="M471.04,358.4V51.2H20.48v307.2H0v44.06l25.24,37.86h441.04l25.24-37.86V358.4H471.04z M40.96,71.68h409.6V358.4H40.96
			V71.68z M471.04,396.26l-15.72,23.58H36.2l-15.72-23.58v-17.38h450.56V396.26z"/>
	</g>
</g>
<g>
	<g>
		<rect x="235.52" y="389.12" width="20.48" height="20.48"/>
	</g>
</g>
<g>
	<g>
		<rect x="276.48" y="389.12" width="20.48" height="20.48"/>
	</g>
</g>
<g>
	<g>
		<rect x="194.56" y="389.12" width="20.48" height="20.48"/>
	</g>
</g>
<g>
	<g>
		<path d="M348.16,102.4v235.52h71.68V102.4H348.16z M399.36,317.44h-30.72V122.88h30.72V317.44z"/>
	</g>
</g>
<g>
	<g>
		<path d="M256,143.36v194.56h71.68V143.36H256z M307.2,317.44h-30.72v-153.6h30.72V317.44z"/>
	</g>
</g>
<g>
	<g>
		<path d="M163.84,184.32v153.6h71.68v-153.6H163.84z M215.04,317.44h-30.72V204.8h30.72V317.44z"/>
	</g>
</g>
<g>
	<g>
		<path d="M71.68,235.52v102.4h71.68v-102.4H71.68z M122.88,317.44H92.16V256h30.72V317.44z"/>
	</g>
</g>
</svg>